<?xml version="1.0" standalone="no"?>
<!DOCTYPE svg PUBLIC "-//W3C//DTD SVG 20010904//EN"
 "http://www.w3.org/TR/2001/REC-SVG-20010904/DTD/svg10.dtd">
<svg version="1.0" xmlns="http://www.w3.org/2000/svg"
 width="842.000000pt" height="595.000000pt" viewBox="0 0 842.000000 595.000000"
 preserveAspectRatio="xMidYMid meet">

<g transform="translate(0.000000,595.000000) scale(0.100000,-0.100000)"
fill="#000000" stroke="none">
<path d="M3804 5041 c-41 -25 -72 -66 -80 -106 -3 -20 -21 -47 -45 -70 -21
-20 -39 -42 -39 -49 0 -7 -14 -23 -31 -35 -17 -13 -39 -42 -50 -64 -17 -39
-19 -71 -19 -382 l0 -339 -86 -444 c-98 -501 -97 -491 -24 -565 27 -27 40 -50
45 -80 7 -42 37 -100 58 -114 7 -5 21 -26 32 -48 26 -51 73 -82 138 -90 29 -3
291 -5 582 -3 592 3 565 0 622 75 l28 36 6 541 c4 298 12 575 17 616 6 41 26
158 47 260 68 344 85 443 85 482 0 52 -32 111 -72 136 -36 22 -1088 262 -1148
262 -19 0 -49 -9 -66 -19z m632 -120 c291 -65 544 -126 562 -135 18 -9 42 -31
52 -49 33 -53 28 -102 -41 -454 -17 -86 -25 -61 -17 52 5 58 11 152 16 209 8
116 3 157 -26 195 -43 57 -75 66 -337 91 -66 6 -262 24 -435 41 -173 16 -350
32 -392 36 -43 3 -78 10 -78 15 0 30 56 98 90 111 36 13 106 0 606 -112z
m-272 -66 c148 -14 272 -27 274 -30 3 -3 -157 -5 -356 -5 -351 0 -362 1 -362
19 0 11 8 27 17 37 19 19 -14 20 427 -21z m-464 -26 c-6 -10 -15 -19 -20 -19
-13 0 -13 6 2 29 15 25 31 16 18 -10z m1165 -70 c19 -17 40 -47 45 -67 8 -25
10 -336 8 -979 -3 -933 -3 -942 -24 -969 -11 -15 -33 -37 -48 -48 -27 -21 -37
-21 -606 -21 -569 0 -579 0 -606 21 -15 11 -37 33 -48 48 -21 27 -21 36 -24
969 -2 643 0 954 8 979 5 20 26 50 45 67 l36 31 589 0 589 0 36 -31z m79 -10
c56 -49 58 -70 36 -374 -12 -148 -25 -279 -30 -290 -5 -12 -9 97 -9 283 -1
316 -5 346 -48 394 -29 32 12 22 51 -13z m-1429 -1296 c-14 -175 -29 -353 -32
-395 -3 -43 -9 -78 -13 -78 -17 0 -61 56 -72 91 -9 31 -8 55 5 121 56 293 107
559 113 593 4 22 9 45 13 50 14 24 11 -85 -14 -382z m25 -279 l0 -215 -22 3
c-13 2 -22 8 -21 13 0 6 6 96 13 200 7 105 14 196 16 203 11 37 14 -9 14 -204z
m0 -289 c0 -30 -4 -55 -9 -55 -10 0 -41 72 -41 95 0 9 10 15 25 15 24 0 25 -3
25 -55z"/>
<path d="M3692 4605 c-24 -27 -42 -58 -42 -71 0 -28 40 -57 65 -48 15 6 17 2
13 -29 -2 -23 0 -37 7 -37 7 0 9 14 7 37 -4 31 -2 35 13 29 10 -4 28 0 41 9
37 24 31 59 -19 112 l-43 45 -42 -47z"/>
<path d="M4169 3961 c-103 -110 -138 -163 -139 -210 0 -40 37 -105 72 -125 37
-22 110 -25 133 -6 23 19 27 8 16 -56 -14 -90 -26 -114 -56 -114 -14 0 -25 -4
-25 -10 0 -6 40 -10 100 -10 55 0 100 4 100 9 0 5 -10 11 -22 13 -29 4 -47 41
-54 116 l-7 61 42 -15 c95 -32 181 33 181 138 0 57 -23 92 -141 217 l-96 102
-104 -110z"/>
<path d="M4688 2955 c-39 -44 -48 -81 -26 -103 7 -7 39 -12 75 -12 64 0 83 12
83 55 0 15 -76 105 -89 105 -3 -1 -23 -20 -43 -45z"/>
<path d="M4723 2800 c-10 -26 -9 -30 6 -30 14 0 17 6 13 30 -2 17 -5 30 -6 30
-1 0 -7 -13 -13 -30z"/>
<path d="M4120 1580 l0 -690 75 0 75 0 0 205 0 205 39 0 39 0 153 -205 154
-205 93 0 c72 0 91 3 85 13 -4 6 -87 115 -185 241 -177 227 -179 229 -160 250
16 19 169 205 276 339 l38 47 -88 0 -89 -1 -140 -179 c-137 -175 -141 -179
-177 -180 l-38 0 0 425 0 425 -75 0 -75 0 0 -690z"/>
<path d="M2070 1526 l0 -636 80 0 80 0 0 245 0 245 158 0 c245 0 341 33 416
143 57 83 70 128 70 247 0 86 -4 115 -23 163 -33 84 -87 147 -162 187 l-64 35
-277 3 -278 3 0 -635z m500 484 c132 -36 196 -220 128 -361 -50 -102 -95 -119
-309 -119 l-159 0 0 245 0 245 153 0 c83 0 168 -4 187 -10z"/>
<path d="M3405 1789 c-163 -15 -305 -146 -346 -319 -16 -70 -16 -200 1 -270
30 -126 109 -229 219 -283 63 -31 71 -32 186 -32 115 0 123 1 185 32 109 54
173 131 211 253 23 75 28 224 10 304 -50 215 -232 338 -466 315z m170 -153
c118 -55 181 -204 155 -369 -25 -161 -123 -257 -265 -257 -143 0 -242 97 -265
260 -31 221 83 390 265 390 42 0 75 -7 110 -24z"/>
<path d="M5299 1790 c-117 -14 -231 -93 -286 -197 -34 -62 -63 -184 -63 -258
0 -74 29 -196 62 -258 38 -70 102 -130 176 -165 51 -24 68 -27 172 -27 107 0
119 2 175 29 69 35 129 92 168 164 30 56 32 53 -43 67 -19 4 -43 9 -52 11 -10
3 -19 -2 -22 -13 -10 -31 -79 -95 -124 -115 -49 -22 -119 -25 -181 -8 -88 23
-165 127 -178 241 l-6 49 328 0 328 0 -6 78 c-8 106 -32 187 -72 249 -78 118
-213 173 -376 153z m130 -126 c91 -27 147 -95 165 -201 l6 -33 -247 0 -246 0
6 36 c7 39 39 108 65 138 30 33 123 71 183 75 8 1 39 -6 68 -15z"/>
<path d="M6325 1776 c-82 -26 -154 -81 -179 -136 -9 -22 -11 -14 -14 58 l-3
82 -74 0 -75 0 0 -445 0 -445 74 0 74 0 3 283 4 282 28 56 c34 70 83 106 166
121 l61 12 0 73 c0 80 1 80 -65 59z"/>
</g>
</svg>
